# xmcd CD database file
#
# Track frame offsets:
#	225
#	16635
#	41446
#	55887
#	80514
#	107897
#	127181
#	147915
#	174300
#	192610
#	215790
#
# Disc length: 3366 seconds
#
# Revision: 0
# Processed by: cddbd v1.4PL0 Copyright (c) Steve Scherf et al.
# Submitted via: CDex 1.50
#
DISCID=9f0d230b
DTITLE=Pop's Wilson and Harriet Lewis - unparallel
DYEAR=1900
DGENRE=Jazz
TTITLE0=Donna Lee
TTITLE1=Autumn Leaves
TTITLE2=Freedom Jazzdance
TTITLE3=Save Your Love
TTITLE4=Funny Valentine
TTITLE5=Bye Bye Blackbird
TTITLE6=Cherokee
TTITLE7=Round Midnight
TTITLE8=Kanses City
TTITLE9=You Are So Beautiful
TTITLE10=Little Sunflower
EXTD=
EXTT0=
EXTT1=
EXTT2=
EXTT3=
EXTT4=
EXTT5=
EXTT6=
EXTT7=
EXTT8=
EXTT9=
EXTT10=
PLAYORDER=
